<?xml version="1.0" encoding="UTF-8" standalone="no"?>
<!-- Created with Inkscape (http://www.inkscape.org/) -->

<svg
   xmlns:dc="http://purl.org/dc/elements/1.1/"
   xmlns:cc="http://creativecommons.org/ns#"
   xmlns:rdf="http://www.w3.org/1999/02/22-rdf-syntax-ns#"
   xmlns:svg="http://www.w3.org/2000/svg"
   xmlns="http://www.w3.org/2000/svg"
   xmlns:sodipodi="http://sodipodi.sourceforge.net/DTD/sodipodi-0.dtd"
   xmlns:inkscape="http://www.inkscape.org/namespaces/inkscape"
   width="50mm"
   height="50mm"
   viewBox="0 0 50 50"
   version="1.1"
   id="svg8"
   inkscape:version="0.92.4 (f8dce91, 2019-08-02)"
   sodipodi:docname="magpie.svg">
  <defs
     id="defs2" />
  <sodipodi:namedview
     id="base"
     pagecolor="#ffffff"
     bordercolor="#666666"
     borderopacity="1.0"
     inkscape:pageopacity="0.0"
     inkscape:pageshadow="2"
     inkscape:zoom="2.8"
     inkscape:cx="103.33094"
     inkscape:cy="83.920849"
     inkscape:document-units="mm"
     inkscape:current-layer="layer1"
     showgrid="false"
     inkscape:window-width="1850"
     inkscape:window-height="1016"
     inkscape:window-x="70"
     inkscape:window-y="27"
     inkscape:window-maximized="1" />
  <metadata
     id="metadata5">
    <rdf:RDF>
      <cc:Work
         rdf:about="">
        <dc:format>image/svg+xml</dc:format>
        <dc:type
           rdf:resource="http://purl.org/dc/dcmitype/StillImage" />
        <dc:title></dc:title>
      </cc:Work>
    </rdf:RDF>
  </metadata>
  <g
     inkscape:label="Layer 1"
     inkscape:groupmode="layer"
     id="layer1"
     transform="translate(0,-247)">
    <path
       style="fill:none;stroke:#000000;stroke-width:0.07923827px;stroke-linecap:butt;stroke-linejoin:miter;stroke-opacity:1"
       d="m 28.10592,262.03544 c -3.324455,0.36726 -4.387353,-1.22549 -6.579605,-1.83946 -2.237696,-0.17348 -4.486719,0.47881 -6.367361,1.16027 -1.470972,0.5014 -2.543295,0.92859 -4.225929,2.13554 -1.0701456,1.05296 -1.5186431,1.13176 -3.3120628,3.68238 l -4.4921055,6.96331 c -0.7203844,1.21398 -1.525979,2.29883 -2.16115358,3.64193 -0.26875943,0.73692 -0.28455132,1.5103 -0.40465293,2.28122 -0.22206301,2.56332 -0.20519701,5.12801 0.16452458,7.54903 0.27294693,1.3344 0.94414543,2.55225 1.42075843,3.82704 0.6508369,1.07962 1.1949052,2.57722 2.2111816,3.1617 0.9123359,0.64321 1.1991192,0.90272 3.0216129,1.21065 1.0482665,0.25496 2.9732293,0.2702 4.5217053,0.40606 13.873967,0.31943 19.976558,0.58106 22.217687,-0.12956 0.852151,-0.40714 1.18461,-0.81344 1.384584,-1.27076 0.05221,-0.82233 -0.105588,-1.60625 -0.715316,-2.30022 -2.360905,-2.36102 -5.609952,-5.48538 -8.359195,-9.26638 -0.299358,-1.00054 -0.416449,-2.00107 -0.04003,-3.0016 0.848913,-1.31761 2.348863,-2.43583 3.561905,-3.55189 1.4157,-1.46119 3.304142,-3.00054 5.162758,-4.57245 2.735343,-1.64293 7.510334,-3.02591 12.950492,-4.32411 2.011841,-0.57717 1.288292,-1.27278 0.590674,-1.37207 -0.393376,-0.01 -0.510125,-0.0167 -1.334646,0.0532 -8.631278,0.42443 -15.061341,1.25648 -19.370345,2.48132 2.235831,-1.77758 3.921874,-2.5895 7.744135,-4.02214 3.961379,-1.27702 9.816422,-3.14951 11.286029,-3.5619 0.858397,-0.25806 0.560282,-0.87812 0.200106,-1.03055 -1.309644,-0.42271 -1.333086,-0.4209 -2.081113,-0.3702 -2.542563,0.11655 -4.315667,-0.0747 -7.804165,0.42022 -3.760699,0.58381 -6.845659,0.94945 -9.190478,1.63946 z"
       id="path38"
       inkscape:connector-curvature="0"
       sodipodi:nodetypes="cccccccccccccccccccccccccccccc" />
    <path
       style="fill:none;stroke:#000000;stroke-width:0.07923827px;stroke-linecap:butt;stroke-linejoin:miter;stroke-opacity:1"
       d="m 28.185966,262.01703 c -1.298904,0.17423 -2.119848,0.52879 -2.681127,0.92366 -1.314018,0.92444 2.793689,1.00629 -1.9033,5.32299 -0.316364,0.4149 -0.229238,2.24751 0.320464,3.81654 0.461586,1.64064 0.311326,3.81531 1.565346,2.99414 3.396758,-2.08151 7.649204,-2.55922 9.627882,-3.11058 3.055512,-1.14267 7.590372,-2.88585 13.03053,-4.18403 2.011843,-0.57718 1.288284,-1.2728 0.590673,-1.37207 -0.393372,-0.01 -0.510125,-0.0167 -1.334645,0.0532 -8.631276,0.42443 -15.061335,1.25649 -19.370339,2.48132 2.235832,-1.77758 3.921878,-2.58951 7.744132,-4.02215 3.961379,-1.27701 9.816421,-3.1495 11.286026,-3.5619 0.858402,-0.25805 0.560288,-0.87811 0.200108,-1.03054 -1.309643,-0.42271 -1.333086,-0.4209 -2.081112,-0.37021 -2.542561,0.11656 -4.315667,-0.0747 -7.804165,0.42023 -3.760695,0.5838 -6.845653,0.94945 -9.190473,1.63945 z"
       id="path38-6"
       inkscape:connector-curvature="0"
       sodipodi:nodetypes="cscccccccccccccc" />
    <path
       style="fill:none;stroke:#000000;stroke-width:0.07923827px;stroke-linecap:butt;stroke-linejoin:miter;stroke-opacity:1"
       d="m 11.255647,279.52487 c 1.35909,1.84943 3.085618,3.08081 3.705209,4.99442 2.974112,8.20579 -4.308519,10.93949 -10.7558308,8.9571 -2.0551014,-0.72525 -2.9524057,-3.96852 -3.39386104,-5.92907 -0.63014264,-4.45442 -0.57046517,-8.6435 0.70916934,-10.77678 1.9120733,-3.1876 5.9559572,-2.5252 9.7353135,2.75433 z"
       id="path55"
       inkscape:connector-curvature="0"
       sodipodi:nodetypes="ccccsc" />
  </g>
</svg>
